<mxfile host="app.diagrams.net" modified="2021-02-04T20:54:52.680Z" agent="5.0 (Macintosh; Intel Mac OS X 10_15_6) AppleWebKit/605.1.15 (KHTML, like Gecko) Version/14.0.3 Safari/605.1.15" etag="GD7TtNp8ZI2fJoqE5xn9" version="14.2.9" type="github">
  <diagram id="v6ZWtcrK27b5-h3i_Gaw" name="Page-1">
    <mxGraphModel dx="968" dy="520" grid="1" gridSize="10" guides="1" tooltips="1" connect="1" arrows="1" fold="1" page="1" pageScale="1" pageWidth="827" pageHeight="1169" math="0" shadow="0">
      <root>
        <mxCell id="0" />
        <mxCell id="1" parent="0" />
        <mxCell id="5thoiZgcrnCgrnXC4tC4-1" value="Guests&lt;br&gt;&lt;br&gt;&lt;br&gt;&lt;br&gt;&lt;br&gt;name&lt;br&gt;&lt;br&gt;stays" style="rounded=0;whiteSpace=wrap;html=1;" vertex="1" parent="1">
          <mxGeometry x="90" y="120" width="120" height="200" as="geometry" />
        </mxCell>
        <mxCell id="5thoiZgcrnCgrnXC4tC4-2" value="Reservations&lt;br&gt;&lt;br&gt;&lt;br&gt;name_id&lt;br&gt;room_id" style="rounded=0;whiteSpace=wrap;html=1;" vertex="1" parent="1">
          <mxGeometry x="310" y="310" width="170" height="200" as="geometry" />
        </mxCell>
        <mxCell id="5thoiZgcrnCgrnXC4tC4-3" value="Rooms&lt;br&gt;&lt;br&gt;&lt;br&gt;number&lt;br&gt;max_occupancy" style="rounded=0;whiteSpace=wrap;html=1;" vertex="1" parent="1">
          <mxGeometry x="570" y="120" width="130" height="200" as="geometry" />
        </mxCell>
        <mxCell id="5thoiZgcrnCgrnXC4tC4-15" value="" style="endArrow=none;html=1;exitX=0;exitY=0.5;exitDx=0;exitDy=0;" edge="1" parent="1" source="5thoiZgcrnCgrnXC4tC4-2" target="5thoiZgcrnCgrnXC4tC4-1">
          <mxGeometry width="50" height="50" relative="1" as="geometry">
            <mxPoint x="390" y="340" as="sourcePoint" />
            <mxPoint x="440" y="290" as="targetPoint" />
          </mxGeometry>
        </mxCell>
        <mxCell id="5thoiZgcrnCgrnXC4tC4-16" value="" style="endArrow=none;html=1;exitX=-0.012;exitY=0.605;exitDx=0;exitDy=0;exitPerimeter=0;" edge="1" parent="1" source="5thoiZgcrnCgrnXC4tC4-2">
          <mxGeometry width="50" height="50" relative="1" as="geometry">
            <mxPoint x="310" y="410" as="sourcePoint" />
            <mxPoint x="290" y="390" as="targetPoint" />
          </mxGeometry>
        </mxCell>
        <mxCell id="5thoiZgcrnCgrnXC4tC4-17" value="" style="endArrow=none;html=1;exitX=-0.024;exitY=0.38;exitDx=0;exitDy=0;exitPerimeter=0;" edge="1" parent="1" source="5thoiZgcrnCgrnXC4tC4-2">
          <mxGeometry width="50" height="50" relative="1" as="geometry">
            <mxPoint x="317.96000000000004" y="441" as="sourcePoint" />
            <mxPoint x="290" y="386" as="targetPoint" />
          </mxGeometry>
        </mxCell>
        <mxCell id="5thoiZgcrnCgrnXC4tC4-18" value="" style="endArrow=none;html=1;exitX=0;exitY=0.5;exitDx=0;exitDy=0;entryX=-0.023;entryY=0.585;entryDx=0;entryDy=0;entryPerimeter=0;" edge="1" parent="1" target="5thoiZgcrnCgrnXC4tC4-3">
          <mxGeometry width="50" height="50" relative="1" as="geometry">
            <mxPoint x="480" y="388.75" as="sourcePoint" />
            <mxPoint x="380" y="270" as="targetPoint" />
          </mxGeometry>
        </mxCell>
        <mxCell id="5thoiZgcrnCgrnXC4tC4-19" value="" style="endArrow=none;html=1;exitX=-0.012;exitY=0.605;exitDx=0;exitDy=0;exitPerimeter=0;" edge="1" parent="1">
          <mxGeometry width="50" height="50" relative="1" as="geometry">
            <mxPoint x="477.96000000000004" y="409.75" as="sourcePoint" />
            <mxPoint x="490" y="369" as="targetPoint" />
          </mxGeometry>
        </mxCell>
        <mxCell id="5thoiZgcrnCgrnXC4tC4-20" value="" style="endArrow=none;html=1;exitX=-0.024;exitY=0.38;exitDx=0;exitDy=0;exitPerimeter=0;" edge="1" parent="1">
          <mxGeometry width="50" height="50" relative="1" as="geometry">
            <mxPoint x="475.9200000000001" y="364.75" as="sourcePoint" />
            <mxPoint x="500" y="360" as="targetPoint" />
          </mxGeometry>
        </mxCell>
      </root>
    </mxGraphModel>
  </diagram>
</mxfile>
